<svg width="16" height="16" xmlns="http://www.w3.org/2000/svg" class="si-glyph si-glyph-music-note">
 <!-- Generator: Sketch 3.0.3 (7891) - http://www.bohemiancoding.com/sketch -->
 <title>1114</title>

 <g>
  <title>background</title>
  <rect fill="none" id="canvas_background" height="18" width="18" y="-1" x="-1"/>
 </g>
 <g>
  <title>Layer 1</title>
  <g id="svg_1" fill-rule="evenodd" fill="none">
   <path id="svg_2" class="si-glyph-fill" fill="#434343" d="m4.488742,2.188l0,9.174c-0.561,-0.035 -1.178,0.052 -1.792,0.301c-1.605,0.649 -2.533,2.066 -2.074,3.162c0.465,1.099 2.139,1.459 3.743,0.809c1.233,-0.5 1.958,-1.45 2.067,-2.362l-0.007,-8.885l7.062,-1.359l0,6.378c-0.598,-0.063 -1.274,0.026 -1.944,0.297c-1.605,0.65 -2.532,2.067 -2.072,3.163c0.463,1.098 2.137,1.459 3.742,0.809c1.233,-0.501 2.09,-1.451 2.201,-2.362l0.011,-11.311l-10.937,2.186l0,0z"/>
  </g>
  <line opacity="0.6" stroke="#000" stroke-linecap="undefined" stroke-linejoin="undefined" id="svg_3" y2="14.70632" x2="15.224062" y1="2.153224" x1="2.670967" stroke-width="1.5" fill="none"/>
 </g>
</svg>